<svg width="32" height="28" viewBox="0 0 32 28.0497" fill="none" xmlns="http://www.w3.org/2000/svg"><g id="Group 110"><path id="Vector 5" d="M10.4512 17.0656L11.4767 18.4647C11.4767 18.4647 7.52642 20.2525 5.53535 21.4036C4.34254 22.0933 3.89474 22.593 4.31346 22.9265C4.49148 23.0683 10.5386 27.6565 10.7439 27.7931C13.0469 29.3259 8.86457 23.4023 8.86457 23.4023C8.86457 23.4023 14.7872 21.5471 16.053 20.0773C17.3188 18.6075 16.2308 17.0656 16.2308 17.0656C16.2308 17.0656 18.5405 17.9555 18.6316 20.0773C18.6886 21.4042 17.1037 24.1738 16.2601 26.3076C15.7547 27.5859 15.5144 28.0339 16.0504 28.0364C16.2783 28.0375 24.3414 28.0657 24.5865 28.0364C26.146 27.8504 20.3185 26.3076 20.3185 26.3076C20.3185 26.3076 22.9805 22.6461 23.611 20.343C24.0232 18.8372 22.7218 16.7999 22.7218 16.7999C22.7218 16.7999 28.4125 18.3057 28.8571 17.9514C29.3017 17.5971 27.5234 12.991 27.5234 12.991C27.5234 12.991 32 10.8673 32 10.0701C32 9.2729 27.6048 7.23345 27.6048 7.23345C27.6048 7.23345 27.9679 3.15884 27.1677 2.71595C26.3674 2.27306 20.5878 4.75945 20.5878 4.75945C20.5878 4.75945 17.8226 0 16.222 0C14.6215 0 11.5182 4.75945 11.5182 4.75945C11.5182 4.75945 6.36101 2.0959 5.64968 2.45021C4.93834 2.80453 4.7605 7.23345 4.7605 7.23345C4.7605 7.23345 0 9.355 0 10.1522C0 10.9494 5.02725 12.991 5.02725 12.991C5.02725 12.991 3.42674 17.6857 4.04916 17.9514C4.67158 18.2172 10.4512 17.0656 10.4512 17.0656Z" fill="#FF5C00"/><g id="Group 77"><path id="Ellipse 45" d="M22.0495 10.7368C22.0495 11.8402 19.6706 14.0471 16.1078 14.0471C12.5451 14.0471 10.1662 11.9251 10.1662 10.7368C10.1662 9.54845 12.5451 7.17179 16.1078 7.17179C19.6706 7.17179 22.0495 9.63333 22.0495 10.7368Z" fill="white"/><path id="Intersect" d="M17.666 7.33398C18.384 7.48532 19.032 7.73209 19.5957 8.03125C20.3555 8.6296 20.8438 9.55748 20.8438 10.5996C20.8436 11.8468 20.1438 12.9291 19.1162 13.4795C18.7461 13.6271 18.3464 13.7524 17.9199 13.8477C17.8072 13.8594 17.6929 13.8662 17.5772 13.8662C15.7729 13.8662 14.3098 12.4038 14.3096 10.5996C14.3096 10.1978 14.382 9.81255 14.5147 9.45703C14.7418 9.80765 15.1361 10.04 15.585 10.04C16.2888 10.0398 16.8592 9.46946 16.8594 8.76562C16.8594 8.27928 16.587 7.8566 16.1865 7.6416C16.6083 7.44298 17.08 7.33203 17.5772 7.33203C17.6069 7.33204 17.6365 7.33319 17.666 7.33398Z" fill="black"/></g></g></svg>
